<svg xmlns="http://www.w3.org/2000/svg" xmlns:xlink="http://www.w3.org/1999/xlink" version="1.1" x="0px" y="0px" viewBox="0 0 100 125" enable-background="new 0 0 100 100" xml:space="preserve"><path d="M50.838,8.055l-0.002-0.01c-0.003,0.001-0.027,0.007-0.038,0.009c-0.266-0.008-0.53-0.021-0.799-0.021  c-16.282,0-29.529,14.102-29.529,31.434c0,12.084,6.442,22.59,15.86,27.848l1.057,1.152h0.043l7.975,7.368l-1.772,6.341H41.16  l1.027,9.791h15.088l0.998-9.791H55.59l-1.713-6.119l8.689-7.59h0.007l0.03-0.033l0.188-0.166l-0.018-0.018l0.893-0.936h-4.592  C66.113,63.24,75,55.018,75,39.444c0-19.002-13.527-27.05-20.633-29.969c13.613,2.25,24.066,14.841,24.066,29.99  c0,12.48-7.105,23.196-17.225,27.848h2.458c9.418-5.258,15.86-15.764,15.86-27.848C79.529,22.433,66.732,8.531,50.838,8.055z   M50.008,9.397c18.417,20.253,5.737,49.001,1.062,57.917h-2.146c-4.676-8.91-17.355-37.65,1.059-57.914  C49.995,9.401,50,9.4,50.008,9.397z M51.77,75.176h-0.414V73.27h-3.438v1.906H47.76l-4.995-6.709h14.41l-5.429,6.689L51.77,75.176z   M50.355,74.27v0.906h-1.437V74.27H50.355z M47.7,67.314h-3.574c-6.957-3.549-17.078-11.521-17.078-27.873  c0-19.242,14.372-26.868,20.884-29.336C31.206,30.377,42.86,57.898,47.7,67.314z M21.563,39.467  c0-15.683,11.204-28.626,25.518-30.189c-6.948,2.741-21.127,10.715-21.127,30.168c0,15.561,8.88,23.791,15.915,27.869h-3.136  C28.642,62.65,21.563,51.93,21.563,39.467z M38.904,68.467h2.615l4.996,6.709h-0.348L38.904,68.467z M55.87,83.176h1.296  l-0.794,7.791H43.087l-0.817-7.791h1.083H55.87z M54.552,82.176h-9.881l1.678-6h6.525L54.552,82.176z M61.047,68.467l-7.682,6.709  H53.02l5.444-6.709H61.047z M73.906,39.444c0,16.342-10.135,24.32-17.094,27.871H52.3c4.886-9.502,16.675-37.389-0.637-57.688  C57.223,11.458,73.906,18.691,73.906,39.444z"/><text x="0" y="115" fill="#000000" font-size="5px" font-weight="bold" font-family="'Helvetica Neue', Helvetica, Arial-Unicode, Arial, Sans-serif">Created by Andrew Fortnum</text><text x="0" y="120" fill="#000000" font-size="5px" font-weight="bold" font-family="'Helvetica Neue', Helvetica, Arial-Unicode, Arial, Sans-serif">from the Noun Project</text></svg>